<?xml version="1.0" encoding="UTF-8" ?>
<svg xmlns="http://www.w3.org/2000/svg" xmlns:xlink="http://www.w3.org/1999/xlink" height="250" width="250">
  <g id="qrcode:https://rinpharma.com//">
    <rect x="0" y="0" width="250px" height="250px" style="fill:white;"/>
    <rect x="24.19" y="24.19" width="8.06" height="8.06" stroke="black" stroke-width="0.2" stroke-linecap="butt" fill="black"/>
    <rect x="24.19" y="32.26" width="8.06" height="8.06" stroke="black" stroke-width="0.2" stroke-linecap="butt" fill="black"/>
    <rect x="24.19" y="40.32" width="8.06" height="8.06" stroke="black" stroke-width="0.2" stroke-linecap="butt" fill="black"/>
    <rect x="24.19" y="48.39" width="8.06" height="8.06" stroke="black" stroke-width="0.2" stroke-linecap="butt" fill="black"/>
    <rect x="24.19" y="56.45" width="8.06" height="8.06" stroke="black" stroke-width="0.2" stroke-linecap="butt" fill="black"/>
    <rect x="24.19" y="64.52" width="8.06" height="8.06" stroke="black" stroke-width="0.2" stroke-linecap="butt" fill="black"/>
    <rect x="24.19" y="72.58" width="8.06" height="8.06" stroke="black" stroke-width="0.2" stroke-linecap="butt" fill="black"/>
    <rect x="24.19" y="88.71" width="8.06" height="8.06" stroke="black" stroke-width="0.2" stroke-linecap="butt" fill="black"/>
    <rect x="24.19" y="104.84" width="8.06" height="8.06" stroke="black" stroke-width="0.2" stroke-linecap="butt" fill="black"/>
    <rect x="24.19" y="112.90" width="8.06" height="8.06" stroke="black" stroke-width="0.2" stroke-linecap="butt" fill="black"/>
    <rect x="24.19" y="120.97" width="8.06" height="8.06" stroke="black" stroke-width="0.2" stroke-linecap="butt" fill="black"/>
    <rect x="24.19" y="129.03" width="8.06" height="8.06" stroke="black" stroke-width="0.2" stroke-linecap="butt" fill="black"/>
    <rect x="24.19" y="137.10" width="8.06" height="8.06" stroke="black" stroke-width="0.2" stroke-linecap="butt" fill="black"/>
    <rect x="24.19" y="145.16" width="8.06" height="8.06" stroke="black" stroke-width="0.2" stroke-linecap="butt" fill="black"/>
    <rect x="24.19" y="153.23" width="8.06" height="8.06" stroke="black" stroke-width="0.2" stroke-linecap="butt" fill="black"/>
    <rect x="24.19" y="169.35" width="8.06" height="8.06" stroke="black" stroke-width="0.2" stroke-linecap="butt" fill="black"/>
    <rect x="24.19" y="177.42" width="8.06" height="8.06" stroke="black" stroke-width="0.2" stroke-linecap="butt" fill="black"/>
    <rect x="24.19" y="185.48" width="8.06" height="8.06" stroke="black" stroke-width="0.2" stroke-linecap="butt" fill="black"/>
    <rect x="24.19" y="193.55" width="8.06" height="8.06" stroke="black" stroke-width="0.2" stroke-linecap="butt" fill="black"/>
    <rect x="24.19" y="201.61" width="8.06" height="8.06" stroke="black" stroke-width="0.2" stroke-linecap="butt" fill="black"/>
    <rect x="24.19" y="209.68" width="8.06" height="8.06" stroke="black" stroke-width="0.2" stroke-linecap="butt" fill="black"/>
    <rect x="24.19" y="217.74" width="8.06" height="8.06" stroke="black" stroke-width="0.2" stroke-linecap="butt" fill="black"/>
    <rect x="32.26" y="24.19" width="8.06" height="8.06" stroke="black" stroke-width="0.2" stroke-linecap="butt" fill="black"/>
    <rect x="32.26" y="72.58" width="8.06" height="8.06" stroke="black" stroke-width="0.2" stroke-linecap="butt" fill="black"/>
    <rect x="32.26" y="88.71" width="8.06" height="8.06" stroke="black" stroke-width="0.2" stroke-linecap="butt" fill="black"/>
    <rect x="32.26" y="96.77" width="8.06" height="8.06" stroke="black" stroke-width="0.2" stroke-linecap="butt" fill="black"/>
    <rect x="32.26" y="104.84" width="8.06" height="8.06" stroke="black" stroke-width="0.2" stroke-linecap="butt" fill="black"/>
    <rect x="32.26" y="129.03" width="8.06" height="8.06" stroke="black" stroke-width="0.2" stroke-linecap="butt" fill="black"/>
    <rect x="32.26" y="169.35" width="8.06" height="8.06" stroke="black" stroke-width="0.2" stroke-linecap="butt" fill="black"/>
    <rect x="32.26" y="217.74" width="8.06" height="8.06" stroke="black" stroke-width="0.2" stroke-linecap="butt" fill="black"/>
    <rect x="40.32" y="24.19" width="8.06" height="8.06" stroke="black" stroke-width="0.2" stroke-linecap="butt" fill="black"/>
    <rect x="40.32" y="40.32" width="8.06" height="8.06" stroke="black" stroke-width="0.2" stroke-linecap="butt" fill="black"/>
    <rect x="40.32" y="48.39" width="8.06" height="8.06" stroke="black" stroke-width="0.2" stroke-linecap="butt" fill="black"/>
    <rect x="40.32" y="56.45" width="8.06" height="8.06" stroke="black" stroke-width="0.2" stroke-linecap="butt" fill="black"/>
    <rect x="40.32" y="72.58" width="8.06" height="8.06" stroke="black" stroke-width="0.2" stroke-linecap="butt" fill="black"/>
    <rect x="40.32" y="88.71" width="8.06" height="8.06" stroke="black" stroke-width="0.2" stroke-linecap="butt" fill="black"/>
    <rect x="40.32" y="96.77" width="8.06" height="8.06" stroke="black" stroke-width="0.2" stroke-linecap="butt" fill="black"/>
    <rect x="40.32" y="137.10" width="8.06" height="8.06" stroke="black" stroke-width="0.2" stroke-linecap="butt" fill="black"/>
    <rect x="40.32" y="145.16" width="8.06" height="8.06" stroke="black" stroke-width="0.2" stroke-linecap="butt" fill="black"/>
    <rect x="40.32" y="153.23" width="8.06" height="8.06" stroke="black" stroke-width="0.2" stroke-linecap="butt" fill="black"/>
    <rect x="40.32" y="169.35" width="8.06" height="8.06" stroke="black" stroke-width="0.2" stroke-linecap="butt" fill="black"/>
    <rect x="40.32" y="185.48" width="8.06" height="8.06" stroke="black" stroke-width="0.2" stroke-linecap="butt" fill="black"/>
    <rect x="40.32" y="193.55" width="8.06" height="8.06" stroke="black" stroke-width="0.2" stroke-linecap="butt" fill="black"/>
    <rect x="40.32" y="201.61" width="8.06" height="8.06" stroke="black" stroke-width="0.2" stroke-linecap="butt" fill="black"/>
    <rect x="40.32" y="217.74" width="8.06" height="8.06" stroke="black" stroke-width="0.2" stroke-linecap="butt" fill="black"/>
    <rect x="48.39" y="24.19" width="8.06" height="8.06" stroke="black" stroke-width="0.2" stroke-linecap="butt" fill="black"/>
    <rect x="48.39" y="40.32" width="8.06" height="8.06" stroke="black" stroke-width="0.2" stroke-linecap="butt" fill="black"/>
    <rect x="48.39" y="48.39" width="8.06" height="8.06" stroke="black" stroke-width="0.2" stroke-linecap="butt" fill="black"/>
    <rect x="48.39" y="56.45" width="8.06" height="8.06" stroke="black" stroke-width="0.2" stroke-linecap="butt" fill="black"/>
    <rect x="48.39" y="72.58" width="8.06" height="8.06" stroke="black" stroke-width="0.2" stroke-linecap="butt" fill="black"/>
    <rect x="48.39" y="88.71" width="8.06" height="8.06" stroke="black" stroke-width="0.2" stroke-linecap="butt" fill="black"/>
    <rect x="48.39" y="96.77" width="8.06" height="8.06" stroke="black" stroke-width="0.2" stroke-linecap="butt" fill="black"/>
    <rect x="48.39" y="137.10" width="8.06" height="8.06" stroke="black" stroke-width="0.2" stroke-linecap="butt" fill="black"/>
    <rect x="48.39" y="153.23" width="8.06" height="8.06" stroke="black" stroke-width="0.2" stroke-linecap="butt" fill="black"/>
    <rect x="48.39" y="169.35" width="8.06" height="8.06" stroke="black" stroke-width="0.2" stroke-linecap="butt" fill="black"/>
    <rect x="48.39" y="185.48" width="8.06" height="8.06" stroke="black" stroke-width="0.2" stroke-linecap="butt" fill="black"/>
    <rect x="48.39" y="193.55" width="8.06" height="8.06" stroke="black" stroke-width="0.2" stroke-linecap="butt" fill="black"/>
    <rect x="48.39" y="201.61" width="8.06" height="8.06" stroke="black" stroke-width="0.2" stroke-linecap="butt" fill="black"/>
    <rect x="48.39" y="217.74" width="8.06" height="8.06" stroke="black" stroke-width="0.2" stroke-linecap="butt" fill="black"/>
    <rect x="56.45" y="24.19" width="8.06" height="8.06" stroke="black" stroke-width="0.2" stroke-linecap="butt" fill="black"/>
    <rect x="56.45" y="40.32" width="8.06" height="8.06" stroke="black" stroke-width="0.2" stroke-linecap="butt" fill="black"/>
    <rect x="56.45" y="48.39" width="8.06" height="8.06" stroke="black" stroke-width="0.2" stroke-linecap="butt" fill="black"/>
    <rect x="56.45" y="56.45" width="8.06" height="8.06" stroke="black" stroke-width="0.2" stroke-linecap="butt" fill="black"/>
    <rect x="56.45" y="72.58" width="8.06" height="8.06" stroke="black" stroke-width="0.2" stroke-linecap="butt" fill="black"/>
    <rect x="56.45" y="88.71" width="8.06" height="8.06" stroke="black" stroke-width="0.2" stroke-linecap="butt" fill="black"/>
    <rect x="56.45" y="96.77" width="8.06" height="8.06" stroke="black" stroke-width="0.2" stroke-linecap="butt" fill="black"/>
    <rect x="56.45" y="112.90" width="8.06" height="8.06" stroke="black" stroke-width="0.2" stroke-linecap="butt" fill="black"/>
    <rect x="56.45" y="120.97" width="8.06" height="8.06" stroke="black" stroke-width="0.2" stroke-linecap="butt" fill="black"/>
    <rect x="56.45" y="137.10" width="8.06" height="8.06" stroke="black" stroke-width="0.2" stroke-linecap="butt" fill="black"/>
    <rect x="56.45" y="145.16" width="8.06" height="8.06" stroke="black" stroke-width="0.2" stroke-linecap="butt" fill="black"/>
    <rect x="56.45" y="169.35" width="8.06" height="8.06" stroke="black" stroke-width="0.2" stroke-linecap="butt" fill="black"/>
    <rect x="56.45" y="185.48" width="8.06" height="8.06" stroke="black" stroke-width="0.2" stroke-linecap="butt" fill="black"/>
    <rect x="56.45" y="193.55" width="8.06" height="8.06" stroke="black" stroke-width="0.2" stroke-linecap="butt" fill="black"/>
    <rect x="56.45" y="201.61" width="8.06" height="8.06" stroke="black" stroke-width="0.2" stroke-linecap="butt" fill="black"/>
    <rect x="56.45" y="217.74" width="8.06" height="8.06" stroke="black" stroke-width="0.2" stroke-linecap="butt" fill="black"/>
    <rect x="64.52" y="24.19" width="8.06" height="8.06" stroke="black" stroke-width="0.2" stroke-linecap="butt" fill="black"/>
    <rect x="64.52" y="72.58" width="8.06" height="8.06" stroke="black" stroke-width="0.2" stroke-linecap="butt" fill="black"/>
    <rect x="64.52" y="96.77" width="8.06" height="8.06" stroke="black" stroke-width="0.2" stroke-linecap="butt" fill="black"/>
    <rect x="64.52" y="129.03" width="8.06" height="8.06" stroke="black" stroke-width="0.2" stroke-linecap="butt" fill="black"/>
    <rect x="64.52" y="169.35" width="8.06" height="8.06" stroke="black" stroke-width="0.2" stroke-linecap="butt" fill="black"/>
    <rect x="64.52" y="217.74" width="8.06" height="8.06" stroke="black" stroke-width="0.2" stroke-linecap="butt" fill="black"/>
    <rect x="72.58" y="24.19" width="8.06" height="8.06" stroke="black" stroke-width="0.2" stroke-linecap="butt" fill="black"/>
    <rect x="72.58" y="32.26" width="8.06" height="8.06" stroke="black" stroke-width="0.2" stroke-linecap="butt" fill="black"/>
    <rect x="72.58" y="40.32" width="8.06" height="8.06" stroke="black" stroke-width="0.2" stroke-linecap="butt" fill="black"/>
    <rect x="72.58" y="48.39" width="8.06" height="8.06" stroke="black" stroke-width="0.2" stroke-linecap="butt" fill="black"/>
    <rect x="72.58" y="56.45" width="8.06" height="8.06" stroke="black" stroke-width="0.2" stroke-linecap="butt" fill="black"/>
    <rect x="72.58" y="64.52" width="8.06" height="8.06" stroke="black" stroke-width="0.2" stroke-linecap="butt" fill="black"/>
    <rect x="72.58" y="72.58" width="8.06" height="8.06" stroke="black" stroke-width="0.2" stroke-linecap="butt" fill="black"/>
    <rect x="72.58" y="88.71" width="8.06" height="8.06" stroke="black" stroke-width="0.2" stroke-linecap="butt" fill="black"/>
    <rect x="72.58" y="104.84" width="8.06" height="8.06" stroke="black" stroke-width="0.2" stroke-linecap="butt" fill="black"/>
    <rect x="72.58" y="120.97" width="8.06" height="8.06" stroke="black" stroke-width="0.2" stroke-linecap="butt" fill="black"/>
    <rect x="72.58" y="137.10" width="8.06" height="8.06" stroke="black" stroke-width="0.2" stroke-linecap="butt" fill="black"/>
    <rect x="72.58" y="153.23" width="8.06" height="8.06" stroke="black" stroke-width="0.2" stroke-linecap="butt" fill="black"/>
    <rect x="72.58" y="169.35" width="8.06" height="8.06" stroke="black" stroke-width="0.2" stroke-linecap="butt" fill="black"/>
    <rect x="72.58" y="177.42" width="8.06" height="8.06" stroke="black" stroke-width="0.2" stroke-linecap="butt" fill="black"/>
    <rect x="72.58" y="185.48" width="8.06" height="8.06" stroke="black" stroke-width="0.2" stroke-linecap="butt" fill="black"/>
    <rect x="72.58" y="193.55" width="8.06" height="8.06" stroke="black" stroke-width="0.2" stroke-linecap="butt" fill="black"/>
    <rect x="72.58" y="201.61" width="8.06" height="8.06" stroke="black" stroke-width="0.2" stroke-linecap="butt" fill="black"/>
    <rect x="72.58" y="209.68" width="8.06" height="8.06" stroke="black" stroke-width="0.2" stroke-linecap="butt" fill="black"/>
    <rect x="72.58" y="217.74" width="8.06" height="8.06" stroke="black" stroke-width="0.2" stroke-linecap="butt" fill="black"/>
    <rect x="80.65" y="88.71" width="8.06" height="8.06" stroke="black" stroke-width="0.2" stroke-linecap="butt" fill="black"/>
    <rect x="80.65" y="96.77" width="8.06" height="8.06" stroke="black" stroke-width="0.2" stroke-linecap="butt" fill="black"/>
    <rect x="80.65" y="120.97" width="8.06" height="8.06" stroke="black" stroke-width="0.2" stroke-linecap="butt" fill="black"/>
    <rect x="80.65" y="129.03" width="8.06" height="8.06" stroke="black" stroke-width="0.2" stroke-linecap="butt" fill="black"/>
    <rect x="80.65" y="145.16" width="8.06" height="8.06" stroke="black" stroke-width="0.2" stroke-linecap="butt" fill="black"/>
    <rect x="80.65" y="153.23" width="8.06" height="8.06" stroke="black" stroke-width="0.2" stroke-linecap="butt" fill="black"/>
    <rect x="88.71" y="32.26" width="8.06" height="8.06" stroke="black" stroke-width="0.2" stroke-linecap="butt" fill="black"/>
    <rect x="88.71" y="48.39" width="8.06" height="8.06" stroke="black" stroke-width="0.2" stroke-linecap="butt" fill="black"/>
    <rect x="88.71" y="64.52" width="8.06" height="8.06" stroke="black" stroke-width="0.2" stroke-linecap="butt" fill="black"/>
    <rect x="88.71" y="72.58" width="8.06" height="8.06" stroke="black" stroke-width="0.2" stroke-linecap="butt" fill="black"/>
    <rect x="88.71" y="88.71" width="8.06" height="8.06" stroke="black" stroke-width="0.2" stroke-linecap="butt" fill="black"/>
    <rect x="88.71" y="129.03" width="8.06" height="8.06" stroke="black" stroke-width="0.2" stroke-linecap="butt" fill="black"/>
    <rect x="88.71" y="137.10" width="8.06" height="8.06" stroke="black" stroke-width="0.2" stroke-linecap="butt" fill="black"/>
    <rect x="88.71" y="145.16" width="8.06" height="8.06" stroke="black" stroke-width="0.2" stroke-linecap="butt" fill="black"/>
    <rect x="88.71" y="161.29" width="8.06" height="8.06" stroke="black" stroke-width="0.2" stroke-linecap="butt" fill="black"/>
    <rect x="88.71" y="169.35" width="8.06" height="8.06" stroke="black" stroke-width="0.2" stroke-linecap="butt" fill="black"/>
    <rect x="88.71" y="185.48" width="8.06" height="8.06" stroke="black" stroke-width="0.2" stroke-linecap="butt" fill="black"/>
    <rect x="88.71" y="193.55" width="8.06" height="8.06" stroke="black" stroke-width="0.2" stroke-linecap="butt" fill="black"/>
    <rect x="88.71" y="201.61" width="8.06" height="8.06" stroke="black" stroke-width="0.2" stroke-linecap="butt" fill="black"/>
    <rect x="88.71" y="209.68" width="8.06" height="8.06" stroke="black" stroke-width="0.2" stroke-linecap="butt" fill="black"/>
    <rect x="88.71" y="217.74" width="8.06" height="8.06" stroke="black" stroke-width="0.2" stroke-linecap="butt" fill="black"/>
    <rect x="96.77" y="48.39" width="8.06" height="8.06" stroke="black" stroke-width="0.2" stroke-linecap="butt" fill="black"/>
    <rect x="96.77" y="56.45" width="8.06" height="8.06" stroke="black" stroke-width="0.2" stroke-linecap="butt" fill="black"/>
    <rect x="96.77" y="64.52" width="8.06" height="8.06" stroke="black" stroke-width="0.2" stroke-linecap="butt" fill="black"/>
    <rect x="96.77" y="80.65" width="8.06" height="8.06" stroke="black" stroke-width="0.2" stroke-linecap="butt" fill="black"/>
    <rect x="96.77" y="88.71" width="8.06" height="8.06" stroke="black" stroke-width="0.2" stroke-linecap="butt" fill="black"/>
    <rect x="96.77" y="120.97" width="8.06" height="8.06" stroke="black" stroke-width="0.2" stroke-linecap="butt" fill="black"/>
    <rect x="96.77" y="129.03" width="8.06" height="8.06" stroke="black" stroke-width="0.2" stroke-linecap="butt" fill="black"/>
    <rect x="96.77" y="137.10" width="8.06" height="8.06" stroke="black" stroke-width="0.2" stroke-linecap="butt" fill="black"/>
    <rect x="96.77" y="153.23" width="8.06" height="8.06" stroke="black" stroke-width="0.2" stroke-linecap="butt" fill="black"/>
    <rect x="96.77" y="185.48" width="8.06" height="8.06" stroke="black" stroke-width="0.2" stroke-linecap="butt" fill="black"/>
    <rect x="96.77" y="193.55" width="8.06" height="8.06" stroke="black" stroke-width="0.2" stroke-linecap="butt" fill="black"/>
    <rect x="96.77" y="201.61" width="8.06" height="8.06" stroke="black" stroke-width="0.2" stroke-linecap="butt" fill="black"/>
    <rect x="96.77" y="209.68" width="8.06" height="8.06" stroke="black" stroke-width="0.2" stroke-linecap="butt" fill="black"/>
    <rect x="104.84" y="24.19" width="8.06" height="8.06" stroke="black" stroke-width="0.2" stroke-linecap="butt" fill="black"/>
    <rect x="104.84" y="32.26" width="8.06" height="8.06" stroke="black" stroke-width="0.2" stroke-linecap="butt" fill="black"/>
    <rect x="104.84" y="48.39" width="8.06" height="8.06" stroke="black" stroke-width="0.2" stroke-linecap="butt" fill="black"/>
    <rect x="104.84" y="72.58" width="8.06" height="8.06" stroke="black" stroke-width="0.2" stroke-linecap="butt" fill="black"/>
    <rect x="104.84" y="80.65" width="8.06" height="8.06" stroke="black" stroke-width="0.2" stroke-linecap="butt" fill="black"/>
    <rect x="104.84" y="96.77" width="8.06" height="8.06" stroke="black" stroke-width="0.2" stroke-linecap="butt" fill="black"/>
    <rect x="104.84" y="104.84" width="8.06" height="8.06" stroke="black" stroke-width="0.2" stroke-linecap="butt" fill="black"/>
    <rect x="104.84" y="120.97" width="8.06" height="8.06" stroke="black" stroke-width="0.2" stroke-linecap="butt" fill="black"/>
    <rect x="104.84" y="145.16" width="8.06" height="8.06" stroke="black" stroke-width="0.2" stroke-linecap="butt" fill="black"/>
    <rect x="104.84" y="153.23" width="8.06" height="8.06" stroke="black" stroke-width="0.2" stroke-linecap="butt" fill="black"/>
    <rect x="104.84" y="169.35" width="8.06" height="8.06" stroke="black" stroke-width="0.2" stroke-linecap="butt" fill="black"/>
    <rect x="104.84" y="177.42" width="8.06" height="8.06" stroke="black" stroke-width="0.2" stroke-linecap="butt" fill="black"/>
    <rect x="104.84" y="201.61" width="8.06" height="8.06" stroke="black" stroke-width="0.2" stroke-linecap="butt" fill="black"/>
    <rect x="104.84" y="209.68" width="8.06" height="8.06" stroke="black" stroke-width="0.2" stroke-linecap="butt" fill="black"/>
    <rect x="104.84" y="217.74" width="8.06" height="8.06" stroke="black" stroke-width="0.2" stroke-linecap="butt" fill="black"/>
    <rect x="112.90" y="64.52" width="8.06" height="8.06" stroke="black" stroke-width="0.2" stroke-linecap="butt" fill="black"/>
    <rect x="112.90" y="80.65" width="8.06" height="8.06" stroke="black" stroke-width="0.2" stroke-linecap="butt" fill="black"/>
    <rect x="112.90" y="88.71" width="8.06" height="8.06" stroke="black" stroke-width="0.2" stroke-linecap="butt" fill="black"/>
    <rect x="112.90" y="137.10" width="8.06" height="8.06" stroke="black" stroke-width="0.2" stroke-linecap="butt" fill="black"/>
    <rect x="112.90" y="145.16" width="8.06" height="8.06" stroke="black" stroke-width="0.2" stroke-linecap="butt" fill="black"/>
    <rect x="112.90" y="153.23" width="8.06" height="8.06" stroke="black" stroke-width="0.2" stroke-linecap="butt" fill="black"/>
    <rect x="112.90" y="201.61" width="8.06" height="8.06" stroke="black" stroke-width="0.2" stroke-linecap="butt" fill="black"/>
    <rect x="112.90" y="209.68" width="8.06" height="8.06" stroke="black" stroke-width="0.2" stroke-linecap="butt" fill="black"/>
    <rect x="112.90" y="217.74" width="8.06" height="8.06" stroke="black" stroke-width="0.2" stroke-linecap="butt" fill="black"/>
    <rect x="120.97" y="24.19" width="8.06" height="8.06" stroke="black" stroke-width="0.2" stroke-linecap="butt" fill="black"/>
    <rect x="120.97" y="40.32" width="8.06" height="8.06" stroke="black" stroke-width="0.2" stroke-linecap="butt" fill="black"/>
    <rect x="120.97" y="48.39" width="8.06" height="8.06" stroke="black" stroke-width="0.2" stroke-linecap="butt" fill="black"/>
    <rect x="120.97" y="64.52" width="8.06" height="8.06" stroke="black" stroke-width="0.2" stroke-linecap="butt" fill="black"/>
    <rect x="120.97" y="72.58" width="8.06" height="8.06" stroke="black" stroke-width="0.2" stroke-linecap="butt" fill="black"/>
    <rect x="120.97" y="96.77" width="8.06" height="8.06" stroke="black" stroke-width="0.2" stroke-linecap="butt" fill="black"/>
    <rect x="120.97" y="112.90" width="8.06" height="8.06" stroke="black" stroke-width="0.2" stroke-linecap="butt" fill="black"/>
    <rect x="120.97" y="120.97" width="8.06" height="8.06" stroke="black" stroke-width="0.2" stroke-linecap="butt" fill="black"/>
    <rect x="120.97" y="137.10" width="8.06" height="8.06" stroke="black" stroke-width="0.2" stroke-linecap="butt" fill="black"/>
    <rect x="120.97" y="161.29" width="8.06" height="8.06" stroke="black" stroke-width="0.2" stroke-linecap="butt" fill="black"/>
    <rect x="120.97" y="177.42" width="8.06" height="8.06" stroke="black" stroke-width="0.2" stroke-linecap="butt" fill="black"/>
    <rect x="120.97" y="185.48" width="8.06" height="8.06" stroke="black" stroke-width="0.2" stroke-linecap="butt" fill="black"/>
    <rect x="120.97" y="201.61" width="8.06" height="8.06" stroke="black" stroke-width="0.2" stroke-linecap="butt" fill="black"/>
    <rect x="120.97" y="217.74" width="8.06" height="8.06" stroke="black" stroke-width="0.2" stroke-linecap="butt" fill="black"/>
    <rect x="129.03" y="24.19" width="8.06" height="8.06" stroke="black" stroke-width="0.2" stroke-linecap="butt" fill="black"/>
    <rect x="129.03" y="32.26" width="8.06" height="8.06" stroke="black" stroke-width="0.2" stroke-linecap="butt" fill="black"/>
    <rect x="129.03" y="48.39" width="8.06" height="8.06" stroke="black" stroke-width="0.2" stroke-linecap="butt" fill="black"/>
    <rect x="129.03" y="64.52" width="8.06" height="8.06" stroke="black" stroke-width="0.2" stroke-linecap="butt" fill="black"/>
    <rect x="129.03" y="88.71" width="8.06" height="8.06" stroke="black" stroke-width="0.2" stroke-linecap="butt" fill="black"/>
    <rect x="129.03" y="96.77" width="8.06" height="8.06" stroke="black" stroke-width="0.2" stroke-linecap="butt" fill="black"/>
    <rect x="129.03" y="104.84" width="8.06" height="8.06" stroke="black" stroke-width="0.2" stroke-linecap="butt" fill="black"/>
    <rect x="129.03" y="120.97" width="8.06" height="8.06" stroke="black" stroke-width="0.2" stroke-linecap="butt" fill="black"/>
    <rect x="129.03" y="129.03" width="8.06" height="8.06" stroke="black" stroke-width="0.2" stroke-linecap="butt" fill="black"/>
    <rect x="129.03" y="153.23" width="8.06" height="8.06" stroke="black" stroke-width="0.2" stroke-linecap="butt" fill="black"/>
    <rect x="129.03" y="161.29" width="8.06" height="8.06" stroke="black" stroke-width="0.2" stroke-linecap="butt" fill="black"/>
    <rect x="129.03" y="169.35" width="8.06" height="8.06" stroke="black" stroke-width="0.2" stroke-linecap="butt" fill="black"/>
    <rect x="129.03" y="185.48" width="8.06" height="8.06" stroke="black" stroke-width="0.2" stroke-linecap="butt" fill="black"/>
    <rect x="129.03" y="193.55" width="8.06" height="8.06" stroke="black" stroke-width="0.2" stroke-linecap="butt" fill="black"/>
    <rect x="129.03" y="201.61" width="8.06" height="8.06" stroke="black" stroke-width="0.2" stroke-linecap="butt" fill="black"/>
    <rect x="137.10" y="32.26" width="8.06" height="8.06" stroke="black" stroke-width="0.2" stroke-linecap="butt" fill="black"/>
    <rect x="137.10" y="48.39" width="8.06" height="8.06" stroke="black" stroke-width="0.2" stroke-linecap="butt" fill="black"/>
    <rect x="137.10" y="72.58" width="8.06" height="8.06" stroke="black" stroke-width="0.2" stroke-linecap="butt" fill="black"/>
    <rect x="137.10" y="80.65" width="8.06" height="8.06" stroke="black" stroke-width="0.2" stroke-linecap="butt" fill="black"/>
    <rect x="137.10" y="88.71" width="8.06" height="8.06" stroke="black" stroke-width="0.2" stroke-linecap="butt" fill="black"/>
    <rect x="137.10" y="104.84" width="8.06" height="8.06" stroke="black" stroke-width="0.2" stroke-linecap="butt" fill="black"/>
    <rect x="137.10" y="112.90" width="8.06" height="8.06" stroke="black" stroke-width="0.2" stroke-linecap="butt" fill="black"/>
    <rect x="137.10" y="120.97" width="8.06" height="8.06" stroke="black" stroke-width="0.2" stroke-linecap="butt" fill="black"/>
    <rect x="137.10" y="137.10" width="8.06" height="8.06" stroke="black" stroke-width="0.2" stroke-linecap="butt" fill="black"/>
    <rect x="137.10" y="145.16" width="8.06" height="8.06" stroke="black" stroke-width="0.2" stroke-linecap="butt" fill="black"/>
    <rect x="137.10" y="169.35" width="8.06" height="8.06" stroke="black" stroke-width="0.2" stroke-linecap="butt" fill="black"/>
    <rect x="137.10" y="177.42" width="8.06" height="8.06" stroke="black" stroke-width="0.2" stroke-linecap="butt" fill="black"/>
    <rect x="137.10" y="201.61" width="8.06" height="8.06" stroke="black" stroke-width="0.2" stroke-linecap="butt" fill="black"/>
    <rect x="137.10" y="209.68" width="8.06" height="8.06" stroke="black" stroke-width="0.2" stroke-linecap="butt" fill="black"/>
    <rect x="145.16" y="32.26" width="8.06" height="8.06" stroke="black" stroke-width="0.2" stroke-linecap="butt" fill="black"/>
    <rect x="145.16" y="40.32" width="8.06" height="8.06" stroke="black" stroke-width="0.2" stroke-linecap="butt" fill="black"/>
    <rect x="145.16" y="48.39" width="8.06" height="8.06" stroke="black" stroke-width="0.2" stroke-linecap="butt" fill="black"/>
    <rect x="145.16" y="64.52" width="8.06" height="8.06" stroke="black" stroke-width="0.2" stroke-linecap="butt" fill="black"/>
    <rect x="145.16" y="80.65" width="8.06" height="8.06" stroke="black" stroke-width="0.2" stroke-linecap="butt" fill="black"/>
    <rect x="145.16" y="104.84" width="8.06" height="8.06" stroke="black" stroke-width="0.2" stroke-linecap="butt" fill="black"/>
    <rect x="145.16" y="120.97" width="8.06" height="8.06" stroke="black" stroke-width="0.2" stroke-linecap="butt" fill="black"/>
    <rect x="145.16" y="137.10" width="8.06" height="8.06" stroke="black" stroke-width="0.2" stroke-linecap="butt" fill="black"/>
    <rect x="145.16" y="145.16" width="8.06" height="8.06" stroke="black" stroke-width="0.2" stroke-linecap="butt" fill="black"/>
    <rect x="145.16" y="153.23" width="8.06" height="8.06" stroke="black" stroke-width="0.2" stroke-linecap="butt" fill="black"/>
    <rect x="145.16" y="161.29" width="8.06" height="8.06" stroke="black" stroke-width="0.2" stroke-linecap="butt" fill="black"/>
    <rect x="145.16" y="185.48" width="8.06" height="8.06" stroke="black" stroke-width="0.2" stroke-linecap="butt" fill="black"/>
    <rect x="145.16" y="193.55" width="8.06" height="8.06" stroke="black" stroke-width="0.2" stroke-linecap="butt" fill="black"/>
    <rect x="145.16" y="201.61" width="8.06" height="8.06" stroke="black" stroke-width="0.2" stroke-linecap="butt" fill="black"/>
    <rect x="145.16" y="209.68" width="8.06" height="8.06" stroke="black" stroke-width="0.2" stroke-linecap="butt" fill="black"/>
    <rect x="153.23" y="32.26" width="8.06" height="8.06" stroke="black" stroke-width="0.2" stroke-linecap="butt" fill="black"/>
    <rect x="153.23" y="56.45" width="8.06" height="8.06" stroke="black" stroke-width="0.2" stroke-linecap="butt" fill="black"/>
    <rect x="153.23" y="64.52" width="8.06" height="8.06" stroke="black" stroke-width="0.2" stroke-linecap="butt" fill="black"/>
    <rect x="153.23" y="72.58" width="8.06" height="8.06" stroke="black" stroke-width="0.2" stroke-linecap="butt" fill="black"/>
    <rect x="153.23" y="80.65" width="8.06" height="8.06" stroke="black" stroke-width="0.2" stroke-linecap="butt" fill="black"/>
    <rect x="153.23" y="96.77" width="8.06" height="8.06" stroke="black" stroke-width="0.2" stroke-linecap="butt" fill="black"/>
    <rect x="153.23" y="120.97" width="8.06" height="8.06" stroke="black" stroke-width="0.2" stroke-linecap="butt" fill="black"/>
    <rect x="153.23" y="129.03" width="8.06" height="8.06" stroke="black" stroke-width="0.2" stroke-linecap="butt" fill="black"/>
    <rect x="153.23" y="137.10" width="8.06" height="8.06" stroke="black" stroke-width="0.2" stroke-linecap="butt" fill="black"/>
    <rect x="153.23" y="153.23" width="8.06" height="8.06" stroke="black" stroke-width="0.2" stroke-linecap="butt" fill="black"/>
    <rect x="153.23" y="161.29" width="8.06" height="8.06" stroke="black" stroke-width="0.2" stroke-linecap="butt" fill="black"/>
    <rect x="153.23" y="169.35" width="8.06" height="8.06" stroke="black" stroke-width="0.2" stroke-linecap="butt" fill="black"/>
    <rect x="153.23" y="177.42" width="8.06" height="8.06" stroke="black" stroke-width="0.2" stroke-linecap="butt" fill="black"/>
    <rect x="153.23" y="185.48" width="8.06" height="8.06" stroke="black" stroke-width="0.2" stroke-linecap="butt" fill="black"/>
    <rect x="153.23" y="201.61" width="8.06" height="8.06" stroke="black" stroke-width="0.2" stroke-linecap="butt" fill="black"/>
    <rect x="153.23" y="209.68" width="8.06" height="8.06" stroke="black" stroke-width="0.2" stroke-linecap="butt" fill="black"/>
    <rect x="161.29" y="88.71" width="8.06" height="8.06" stroke="black" stroke-width="0.2" stroke-linecap="butt" fill="black"/>
    <rect x="161.29" y="112.90" width="8.06" height="8.06" stroke="black" stroke-width="0.2" stroke-linecap="butt" fill="black"/>
    <rect x="161.29" y="120.97" width="8.06" height="8.06" stroke="black" stroke-width="0.2" stroke-linecap="butt" fill="black"/>
    <rect x="161.29" y="137.10" width="8.06" height="8.06" stroke="black" stroke-width="0.2" stroke-linecap="butt" fill="black"/>
    <rect x="161.29" y="153.23" width="8.06" height="8.06" stroke="black" stroke-width="0.2" stroke-linecap="butt" fill="black"/>
    <rect x="161.29" y="185.48" width="8.06" height="8.06" stroke="black" stroke-width="0.2" stroke-linecap="butt" fill="black"/>
    <rect x="161.29" y="193.55" width="8.06" height="8.06" stroke="black" stroke-width="0.2" stroke-linecap="butt" fill="black"/>
    <rect x="161.29" y="201.61" width="8.06" height="8.06" stroke="black" stroke-width="0.2" stroke-linecap="butt" fill="black"/>
    <rect x="169.35" y="24.19" width="8.06" height="8.06" stroke="black" stroke-width="0.2" stroke-linecap="butt" fill="black"/>
    <rect x="169.35" y="32.26" width="8.06" height="8.06" stroke="black" stroke-width="0.2" stroke-linecap="butt" fill="black"/>
    <rect x="169.35" y="40.32" width="8.06" height="8.06" stroke="black" stroke-width="0.2" stroke-linecap="butt" fill="black"/>
    <rect x="169.35" y="48.39" width="8.06" height="8.06" stroke="black" stroke-width="0.2" stroke-linecap="butt" fill="black"/>
    <rect x="169.35" y="56.45" width="8.06" height="8.06" stroke="black" stroke-width="0.2" stroke-linecap="butt" fill="black"/>
    <rect x="169.35" y="64.52" width="8.06" height="8.06" stroke="black" stroke-width="0.2" stroke-linecap="butt" fill="black"/>
    <rect x="169.35" y="72.58" width="8.06" height="8.06" stroke="black" stroke-width="0.2" stroke-linecap="butt" fill="black"/>
    <rect x="169.35" y="112.90" width="8.06" height="8.06" stroke="black" stroke-width="0.2" stroke-linecap="butt" fill="black"/>
    <rect x="169.35" y="120.97" width="8.06" height="8.06" stroke="black" stroke-width="0.2" stroke-linecap="butt" fill="black"/>
    <rect x="169.35" y="153.23" width="8.06" height="8.06" stroke="black" stroke-width="0.2" stroke-linecap="butt" fill="black"/>
    <rect x="169.35" y="169.35" width="8.06" height="8.06" stroke="black" stroke-width="0.2" stroke-linecap="butt" fill="black"/>
    <rect x="169.35" y="185.48" width="8.06" height="8.06" stroke="black" stroke-width="0.2" stroke-linecap="butt" fill="black"/>
    <rect x="169.35" y="193.55" width="8.06" height="8.06" stroke="black" stroke-width="0.2" stroke-linecap="butt" fill="black"/>
    <rect x="169.35" y="209.68" width="8.06" height="8.06" stroke="black" stroke-width="0.2" stroke-linecap="butt" fill="black"/>
    <rect x="169.35" y="217.74" width="8.06" height="8.06" stroke="black" stroke-width="0.2" stroke-linecap="butt" fill="black"/>
    <rect x="177.42" y="24.19" width="8.06" height="8.06" stroke="black" stroke-width="0.2" stroke-linecap="butt" fill="black"/>
    <rect x="177.42" y="72.58" width="8.06" height="8.06" stroke="black" stroke-width="0.2" stroke-linecap="butt" fill="black"/>
    <rect x="177.42" y="88.71" width="8.06" height="8.06" stroke="black" stroke-width="0.2" stroke-linecap="butt" fill="black"/>
    <rect x="177.42" y="96.77" width="8.06" height="8.06" stroke="black" stroke-width="0.2" stroke-linecap="butt" fill="black"/>
    <rect x="177.42" y="120.97" width="8.06" height="8.06" stroke="black" stroke-width="0.2" stroke-linecap="butt" fill="black"/>
    <rect x="177.42" y="129.03" width="8.06" height="8.06" stroke="black" stroke-width="0.2" stroke-linecap="butt" fill="black"/>
    <rect x="177.42" y="137.10" width="8.06" height="8.06" stroke="black" stroke-width="0.2" stroke-linecap="butt" fill="black"/>
    <rect x="177.42" y="145.16" width="8.06" height="8.06" stroke="black" stroke-width="0.2" stroke-linecap="butt" fill="black"/>
    <rect x="177.42" y="153.23" width="8.06" height="8.06" stroke="black" stroke-width="0.2" stroke-linecap="butt" fill="black"/>
    <rect x="177.42" y="185.48" width="8.06" height="8.06" stroke="black" stroke-width="0.2" stroke-linecap="butt" fill="black"/>
    <rect x="177.42" y="209.68" width="8.06" height="8.06" stroke="black" stroke-width="0.2" stroke-linecap="butt" fill="black"/>
    <rect x="177.42" y="217.74" width="8.06" height="8.06" stroke="black" stroke-width="0.2" stroke-linecap="butt" fill="black"/>
    <rect x="185.48" y="24.19" width="8.06" height="8.06" stroke="black" stroke-width="0.2" stroke-linecap="butt" fill="black"/>
    <rect x="185.48" y="40.32" width="8.06" height="8.06" stroke="black" stroke-width="0.2" stroke-linecap="butt" fill="black"/>
    <rect x="185.48" y="48.39" width="8.06" height="8.06" stroke="black" stroke-width="0.2" stroke-linecap="butt" fill="black"/>
    <rect x="185.48" y="56.45" width="8.06" height="8.06" stroke="black" stroke-width="0.2" stroke-linecap="butt" fill="black"/>
    <rect x="185.48" y="72.58" width="8.06" height="8.06" stroke="black" stroke-width="0.2" stroke-linecap="butt" fill="black"/>
    <rect x="185.48" y="104.84" width="8.06" height="8.06" stroke="black" stroke-width="0.2" stroke-linecap="butt" fill="black"/>
    <rect x="185.48" y="120.97" width="8.06" height="8.06" stroke="black" stroke-width="0.2" stroke-linecap="butt" fill="black"/>
    <rect x="185.48" y="137.10" width="8.06" height="8.06" stroke="black" stroke-width="0.2" stroke-linecap="butt" fill="black"/>
    <rect x="185.48" y="145.16" width="8.06" height="8.06" stroke="black" stroke-width="0.2" stroke-linecap="butt" fill="black"/>
    <rect x="185.48" y="153.23" width="8.06" height="8.06" stroke="black" stroke-width="0.2" stroke-linecap="butt" fill="black"/>
    <rect x="185.48" y="161.29" width="8.06" height="8.06" stroke="black" stroke-width="0.2" stroke-linecap="butt" fill="black"/>
    <rect x="185.48" y="169.35" width="8.06" height="8.06" stroke="black" stroke-width="0.2" stroke-linecap="butt" fill="black"/>
    <rect x="185.48" y="177.42" width="8.06" height="8.06" stroke="black" stroke-width="0.2" stroke-linecap="butt" fill="black"/>
    <rect x="185.48" y="185.48" width="8.06" height="8.06" stroke="black" stroke-width="0.2" stroke-linecap="butt" fill="black"/>
    <rect x="185.48" y="193.55" width="8.06" height="8.06" stroke="black" stroke-width="0.2" stroke-linecap="butt" fill="black"/>
    <rect x="185.48" y="209.68" width="8.06" height="8.06" stroke="black" stroke-width="0.2" stroke-linecap="butt" fill="black"/>
    <rect x="185.48" y="217.74" width="8.06" height="8.06" stroke="black" stroke-width="0.2" stroke-linecap="butt" fill="black"/>
    <rect x="193.55" y="24.19" width="8.06" height="8.06" stroke="black" stroke-width="0.2" stroke-linecap="butt" fill="black"/>
    <rect x="193.55" y="40.32" width="8.06" height="8.06" stroke="black" stroke-width="0.2" stroke-linecap="butt" fill="black"/>
    <rect x="193.55" y="48.39" width="8.06" height="8.06" stroke="black" stroke-width="0.2" stroke-linecap="butt" fill="black"/>
    <rect x="193.55" y="56.45" width="8.06" height="8.06" stroke="black" stroke-width="0.2" stroke-linecap="butt" fill="black"/>
    <rect x="193.55" y="72.58" width="8.06" height="8.06" stroke="black" stroke-width="0.2" stroke-linecap="butt" fill="black"/>
    <rect x="193.55" y="88.71" width="8.06" height="8.06" stroke="black" stroke-width="0.2" stroke-linecap="butt" fill="black"/>
    <rect x="193.55" y="104.84" width="8.06" height="8.06" stroke="black" stroke-width="0.2" stroke-linecap="butt" fill="black"/>
    <rect x="193.55" y="129.03" width="8.06" height="8.06" stroke="black" stroke-width="0.2" stroke-linecap="butt" fill="black"/>
    <rect x="193.55" y="137.10" width="8.06" height="8.06" stroke="black" stroke-width="0.2" stroke-linecap="butt" fill="black"/>
    <rect x="193.55" y="161.29" width="8.06" height="8.06" stroke="black" stroke-width="0.2" stroke-linecap="butt" fill="black"/>
    <rect x="193.55" y="177.42" width="8.06" height="8.06" stroke="black" stroke-width="0.2" stroke-linecap="butt" fill="black"/>
    <rect x="193.55" y="193.55" width="8.06" height="8.06" stroke="black" stroke-width="0.2" stroke-linecap="butt" fill="black"/>
    <rect x="193.55" y="201.61" width="8.06" height="8.06" stroke="black" stroke-width="0.2" stroke-linecap="butt" fill="black"/>
    <rect x="193.55" y="209.68" width="8.06" height="8.06" stroke="black" stroke-width="0.2" stroke-linecap="butt" fill="black"/>
    <rect x="193.55" y="217.74" width="8.06" height="8.06" stroke="black" stroke-width="0.2" stroke-linecap="butt" fill="black"/>
    <rect x="201.61" y="24.19" width="8.06" height="8.06" stroke="black" stroke-width="0.2" stroke-linecap="butt" fill="black"/>
    <rect x="201.61" y="40.32" width="8.06" height="8.06" stroke="black" stroke-width="0.2" stroke-linecap="butt" fill="black"/>
    <rect x="201.61" y="48.39" width="8.06" height="8.06" stroke="black" stroke-width="0.2" stroke-linecap="butt" fill="black"/>
    <rect x="201.61" y="56.45" width="8.06" height="8.06" stroke="black" stroke-width="0.2" stroke-linecap="butt" fill="black"/>
    <rect x="201.61" y="72.58" width="8.06" height="8.06" stroke="black" stroke-width="0.2" stroke-linecap="butt" fill="black"/>
    <rect x="201.61" y="120.97" width="8.06" height="8.06" stroke="black" stroke-width="0.2" stroke-linecap="butt" fill="black"/>
    <rect x="201.61" y="153.23" width="8.06" height="8.06" stroke="black" stroke-width="0.2" stroke-linecap="butt" fill="black"/>
    <rect x="201.61" y="169.35" width="8.06" height="8.06" stroke="black" stroke-width="0.2" stroke-linecap="butt" fill="black"/>
    <rect x="201.61" y="185.48" width="8.06" height="8.06" stroke="black" stroke-width="0.2" stroke-linecap="butt" fill="black"/>
    <rect x="201.61" y="193.55" width="8.06" height="8.06" stroke="black" stroke-width="0.2" stroke-linecap="butt" fill="black"/>
    <rect x="201.61" y="201.61" width="8.06" height="8.06" stroke="black" stroke-width="0.2" stroke-linecap="butt" fill="black"/>
    <rect x="201.61" y="217.74" width="8.06" height="8.06" stroke="black" stroke-width="0.2" stroke-linecap="butt" fill="black"/>
    <rect x="209.68" y="24.19" width="8.06" height="8.06" stroke="black" stroke-width="0.2" stroke-linecap="butt" fill="black"/>
    <rect x="209.68" y="72.58" width="8.06" height="8.06" stroke="black" stroke-width="0.2" stroke-linecap="butt" fill="black"/>
    <rect x="209.68" y="88.71" width="8.06" height="8.06" stroke="black" stroke-width="0.2" stroke-linecap="butt" fill="black"/>
    <rect x="209.68" y="96.77" width="8.06" height="8.06" stroke="black" stroke-width="0.2" stroke-linecap="butt" fill="black"/>
    <rect x="209.68" y="104.84" width="8.06" height="8.06" stroke="black" stroke-width="0.2" stroke-linecap="butt" fill="black"/>
    <rect x="209.68" y="120.97" width="8.06" height="8.06" stroke="black" stroke-width="0.2" stroke-linecap="butt" fill="black"/>
    <rect x="209.68" y="129.03" width="8.06" height="8.06" stroke="black" stroke-width="0.2" stroke-linecap="butt" fill="black"/>
    <rect x="209.68" y="137.10" width="8.06" height="8.06" stroke="black" stroke-width="0.2" stroke-linecap="butt" fill="black"/>
    <rect x="209.68" y="169.35" width="8.06" height="8.06" stroke="black" stroke-width="0.2" stroke-linecap="butt" fill="black"/>
    <rect x="209.68" y="177.42" width="8.06" height="8.06" stroke="black" stroke-width="0.2" stroke-linecap="butt" fill="black"/>
    <rect x="209.68" y="185.48" width="8.06" height="8.06" stroke="black" stroke-width="0.2" stroke-linecap="butt" fill="black"/>
    <rect x="209.68" y="193.55" width="8.06" height="8.06" stroke="black" stroke-width="0.2" stroke-linecap="butt" fill="black"/>
    <rect x="209.68" y="217.74" width="8.06" height="8.06" stroke="black" stroke-width="0.2" stroke-linecap="butt" fill="black"/>
    <rect x="217.74" y="24.19" width="8.06" height="8.06" stroke="black" stroke-width="0.2" stroke-linecap="butt" fill="black"/>
    <rect x="217.74" y="32.26" width="8.06" height="8.06" stroke="black" stroke-width="0.2" stroke-linecap="butt" fill="black"/>
    <rect x="217.74" y="40.32" width="8.06" height="8.06" stroke="black" stroke-width="0.2" stroke-linecap="butt" fill="black"/>
    <rect x="217.74" y="48.39" width="8.06" height="8.06" stroke="black" stroke-width="0.2" stroke-linecap="butt" fill="black"/>
    <rect x="217.74" y="56.45" width="8.06" height="8.06" stroke="black" stroke-width="0.2" stroke-linecap="butt" fill="black"/>
    <rect x="217.74" y="64.52" width="8.06" height="8.06" stroke="black" stroke-width="0.2" stroke-linecap="butt" fill="black"/>
    <rect x="217.74" y="72.58" width="8.06" height="8.06" stroke="black" stroke-width="0.2" stroke-linecap="butt" fill="black"/>
    <rect x="217.74" y="104.84" width="8.06" height="8.06" stroke="black" stroke-width="0.2" stroke-linecap="butt" fill="black"/>
    <rect x="217.74" y="112.90" width="8.06" height="8.06" stroke="black" stroke-width="0.2" stroke-linecap="butt" fill="black"/>
    <rect x="217.74" y="120.97" width="8.06" height="8.06" stroke="black" stroke-width="0.2" stroke-linecap="butt" fill="black"/>
    <rect x="217.74" y="137.10" width="8.06" height="8.06" stroke="black" stroke-width="0.2" stroke-linecap="butt" fill="black"/>
    <rect x="217.74" y="145.16" width="8.06" height="8.06" stroke="black" stroke-width="0.2" stroke-linecap="butt" fill="black"/>
    <rect x="217.74" y="169.35" width="8.06" height="8.06" stroke="black" stroke-width="0.2" stroke-linecap="butt" fill="black"/>
    <rect x="217.74" y="185.48" width="8.06" height="8.06" stroke="black" stroke-width="0.2" stroke-linecap="butt" fill="black"/>
    <rect x="217.74" y="193.55" width="8.06" height="8.06" stroke="black" stroke-width="0.2" stroke-linecap="butt" fill="black"/>
    <rect x="217.74" y="201.61" width="8.06" height="8.06" stroke="black" stroke-width="0.2" stroke-linecap="butt" fill="black"/>
    <rect x="217.74" y="209.68" width="8.06" height="8.06" stroke="black" stroke-width="0.2" stroke-linecap="butt" fill="black"/>
    <rect x="217.74" y="217.74" width="8.06" height="8.06" stroke="black" stroke-width="0.2" stroke-linecap="butt" fill="black"/>
  </g>
</svg>
